<svg xmlns="http://www.w3.org/2000/svg" version="1.0" width="650" height="700"><path d="m293.301 160.266.23 66.375-69.156 56.187V255.86h-23.094v46.532l-70.796 59.528-108.11 92.41-7.781 35.78 191.375-104.25 87.125-23.343 1.562 154.03 17.094 73.126-90.906 68.625v29.406l104.312-22.156 104 22.094v-29.407L338.25 589.61l17.094-73.125 1.562-154.03 87.125 23.343 191.375 104.25-7.781-35.781-107.164-91.403-71.742-60.535v-46.531h-23.094v26.969l-70.933-56.188.007-66.375c0-27.014.991-111.224-29.418-147.906-29.396 41.87-30.385 96.99-31.98 147.969z" style="opacity:1;color:#000;fill:#98294c;fill-opacity:1;fill-rule:nonzero;stroke:#000;stroke-width:4;stroke-linecap:round;stroke-linejoin:miter;marker:none;marker-start:none;marker-mid:none;marker-end:none;stroke-miterlimit:4;stroke-dasharray:none;stroke-dashoffset:0;stroke-opacity:1;visibility:visible;display:inline;overflow:visible"/></svg>
