<?xml version="1.0" encoding="UTF-8" standalone="no"?>
<svg
   version="1.0"
   width="474"
   height="471"
   id="svg4"
   sodipodi:docname="traffic.svg"
   inkscape:version="1.1.2 (0a00cf5339, 2022-02-04)"
   xmlns:inkscape="http://www.inkscape.org/namespaces/inkscape"
   xmlns:sodipodi="http://sodipodi.sourceforge.net/DTD/sodipodi-0.dtd"
   xmlns="http://www.w3.org/2000/svg"
   xmlns:svg="http://www.w3.org/2000/svg">
  <defs
     id="defs8" />
  <sodipodi:namedview
     id="namedview6"
     pagecolor="#ffffff"
     bordercolor="#666666"
     borderopacity="1.0"
     inkscape:pageshadow="2"
     inkscape:pageopacity="0.0"
     inkscape:pagecheckerboard="0"
     showgrid="false"
     width="474px"
     units="px"
     inkscape:zoom="0.51408223"
     inkscape:cx="331.659"
     inkscape:cy="-39.876889"
     inkscape:window-width="1920"
     inkscape:window-height="966"
     inkscape:window-x="0"
     inkscape:window-y="40"
     inkscape:window-maximized="1"
     inkscape:current-layer="svg4" />
  <path
     style="fill:#ff0000;fill-opacity:1;stroke:#000000;stroke-width:4.69261;stroke-miterlimit:4;stroke-dasharray:none;stroke-opacity:1"
     d="m 238.47275,26.37222 c 2.06784,0 3.28669,1.703185 7.42224,15.122177 0.47878,1.548349 1.47999,8.335264 1.47999,8.335264 0,0 3.30845,0.180651 4.13559,0.180651 1.67584,0 3.91788,1.754791 5.00619,3.870867 3.48257,6.632079 8.9241,43.095635 8.9241,59.869401 0,10.45131 0.71836,16.69633 2.08947,17.9608 1.15361,1.05804 7.22636,4.33538 13.495,7.27724 11.01362,5.16115 13.77795,5.445 93.48541,10.52875 63.12171,3.99989 82.99415,5.90953 85.97612,8.15462 8.22758,6.19339 8.6629,20.61881 1.41486,47.81811 l -3.74378,14.06413 -194.30602,38.29577 -16.32457,142.26724 4.30969,1.44511 c 2.39427,0.77417 18.32704,2.86444 35.4352,4.64504 17.12993,1.7548 32.08326,4.12892 33.28037,5.316 4.74502,4.69664 1.02311,41.75374 -4.22262,41.75374 -8.24936,0 -38.76543,4.9031 -40.37612,6.45143 -1.13174,1.13546 -27.38177,5.34181 -37.48124,5.34181 -10.09946,0 -36.34938,-4.20635 -37.48122,-5.34181 -1.61071,-1.54833 -32.12678,-6.45143 -40.37614,-6.45143 -5.22386,0 -8.96762,-37.0571 -4.22262,-41.75374 1.19714,-1.16127 16.15046,-3.5612 33.28039,-5.316 17.10816,-1.7806 33.0627,-3.87087 35.43519,-4.64504 l 4.3098,-1.44511 L 213.09346,257.85 18.787453,219.55423 15.043682,205.46428 C 7.7955705,178.265 8.2308934,163.91699 16.458481,157.67199 c 2.981956,-2.24509 22.854409,-4.12893 85.976109,-8.15462 79.70746,-5.08376 82.49354,-5.39339 93.50717,-10.52876 6.24689,-2.94185 12.31965,-6.21919 13.47325,-7.27723 1.37124,-1.29027 2.11129,-7.50949 2.11129,-17.935 0,-16.773765 5.41978,-53.263122 8.88059,-59.869399 1.13183,-2.141878 3.35198,-3.896669 5.0062,-3.896669 0.87064,0 4.11376,-0.180651 4.11376,-0.180651 0,0 0.97962,-6.761112 1.48024,-8.335264 4.13546,-13.418992 5.3979,-15.122177 7.46566,-15.122177 z"
     id="path2" />
</svg>
